<?xml version="1.0" encoding="iso-8859-1"?>
<!-- Generator: Adobe Illustrator 19.0.0, SVG Export Plug-In . SVG Version: 6.00 Build 0)  -->
<svg xmlns="http://www.w3.org/2000/svg" xmlns:xlink="http://www.w3.org/1999/xlink" version="1.1" id="Layer_1" x="0px" y="0px" viewBox="0 0 512 512" style="enable-background:new 0 0 512 512;" xml:space="preserve" width="16px" height="16px">
<g>
	<g>
		<g>
			<path d="M331.453,495.829H180.547c-4.466,0-8.084,3.618-8.084,8.084c0,4.466,3.618,8.084,8.084,8.084h150.905     c4.466,0,8.084-3.618,8.084-8.084C339.537,499.447,335.918,495.829,331.453,495.829z" fill="#FFFFFF"/>
			<path d="M471.579,291.031c-3.308,0-6.525,0.399-9.603,1.152l-43.258-72.673c5.128-3.715,10.032-7.885,14.65-12.501     c47.28-47.281,47.28-124.211,0-171.492C398.734,0.884,348.198-8.377,305.054,7.722C289.244,2.597,272.758,0,256,0     C168.333,0,97.011,71.323,97.011,158.988v21.558c0,28.232,22.969,51.2,51.2,51.2h149.419     c34.185,15.426,74.106,14.207,107.386-3.649l42.292,71.052c-9.8,7.383-16.148,19.115-16.148,32.302     c0,0.907,0.029,1.803,0.088,2.695h-51.714l6.961-27.842c2.229-8.917,0.264-18.186-5.393-25.432     c-5.657-7.245-14.173-11.4-23.364-11.4H154.264c-9.192,0-17.708,4.155-23.364,11.4c-5.657,7.246-7.622,16.516-5.393,25.432     l6.961,27.842H80.754c0.059-0.891,0.088-1.788,0.088-2.695c0-22.289-18.132-40.421-40.421-40.421S0,309.162,0,331.451     c0,19.52,13.909,35.853,32.337,39.609v70.875H20.809c-5.557,0-10.803,2.431-14.393,6.67c-3.592,4.238-5.128,9.812-4.215,15.293     l6.892,41.344c0.734,4.403,4.888,7.387,9.303,6.644c4.403-0.734,7.379-4.899,6.645-9.303l-6.891-41.343     c-0.179-1.071,0.301-1.829,0.601-2.185c0.302-0.356,0.97-0.953,2.057-0.953h39.225c1.086,0,1.755,0.597,2.057,0.953     c0.302,0.356,0.78,1.113,0.602,2.184L55.8,502.583c-0.734,4.404,2.242,8.569,6.645,9.303c0.451,0.077,0.898,0.112,1.339,0.112     c3.882,0,7.306-2.802,7.965-6.756l6.892-41.345c0.913-5.48-0.623-11.053-4.215-15.292c-3.592-4.238-8.838-6.67-14.393-6.67     H48.505V371.06c12-2.447,22.085-10.227,27.659-20.746h60.346l17.252,69.006c5.709,22.834,26.134,38.783,49.672,38.783h105.135     c23.538,0,43.963-15.948,49.672-38.782l17.252-69.007h60.345c6.788,12.811,20.263,21.558,35.743,21.558     c22.289,0,40.421-18.132,40.421-40.421C512,309.163,493.868,291.03,471.579,291.031z M148.21,215.578     c-19.317,0-35.032-15.715-35.032-35.032v-21.558c0-78.751,64.069-142.82,142.821-142.82c9.083,0,18.077,0.848,26.899,2.532     c-7.466,4.713-14.526,10.319-21.024,16.816c-14.463,14.464-24.502,31.704-30.116,50.019c-5.77-3.045-12.251-4.693-18.874-4.693     c-22.289,0-40.421,18.131-40.421,40.42s18.132,40.421,40.421,40.421c6.623,0,13.104-1.648,18.874-4.693     c5.615,18.315,15.653,35.554,30.116,50.019c3.054,3.053,6.232,5.91,9.517,8.569H148.21z M227.907,140.305     c-4.256,3.382-9.471,5.211-15.023,5.211c-13.372,0-24.253-10.88-24.253-24.253s10.88-24.253,24.253-24.253     c5.552,0,10.768,1.828,15.023,5.211C225.918,114.83,225.918,127.696,227.907,140.305z M273.309,195.576     c-40.977-40.975-40.977-107.649,0-148.624c20.486-20.489,47.399-30.733,74.312-30.733c26.913,0,53.826,10.244,74.312,30.732     c40.977,40.975,40.977,107.649,0,148.624C380.959,236.552,314.283,236.552,273.309,195.576z M40.421,355.703     c-13.372,0-24.253-10.88-24.253-24.253c0-13.372,10.88-24.253,24.253-24.253c13.372,0,24.253,10.88,24.253,24.253     S53.793,355.703,40.421,355.703z M370.808,302.382l-7.941,31.764h-85.309c-4.466,0-8.084,3.618-8.084,8.084     c0,4.466,3.618,8.084,8.084,8.084h81.265l-16.272,65.084c-3.905,15.624-17.881,26.536-33.985,26.536H203.431     c-16.104,0-30.08-10.912-33.985-26.536l-28.255-113.017c-1.014-4.053-0.121-8.266,2.45-11.559     c2.572-3.294,6.443-5.182,10.62-5.182h203.474c4.178,0,8.049,1.888,10.62,5.182C370.927,294.116,371.821,298.329,370.808,302.382     z M471.579,355.703c-10.488,0-19.442-6.693-22.818-16.03c-0.033-0.096-0.067-0.192-0.102-0.288     c-0.862-2.487-1.332-5.157-1.332-7.934c0-9.803,5.845-18.265,14.235-22.086c0.077-0.033,0.153-0.067,0.23-0.102     c2.994-1.327,6.308-2.064,9.788-2.064c13.372,0,24.253,10.88,24.253,24.253S484.951,355.703,471.579,355.703z" fill="#FFFFFF"/>
			<path d="M191.326,376.184c-4.466,0-8.084,3.618-8.084,8.084v1.078c0,4.466,3.618,8.084,8.084,8.084     c4.466,0,8.084-3.618,8.084-8.084v-1.078C199.411,379.802,195.792,376.184,191.326,376.184z" fill="#FFFFFF"/>
			<path d="M309.895,393.43c4.466,0,8.084-3.618,8.084-8.084v-1.078c0-4.466-3.618-8.084-8.084-8.084     c-4.466,0-8.084,3.618-8.084,8.084v1.078C301.811,389.81,305.429,393.43,309.895,393.43z" fill="#FFFFFF"/>
			<path d="M406.691,62.194c-15.778-15.778-36.756-24.467-59.07-24.467s-43.293,8.69-59.07,24.467     c-15.777,15.777-24.467,36.755-24.467,59.069s8.69,43.292,24.467,59.069c15.778,15.778,36.756,24.467,59.07,24.467     s43.292-8.689,59.07-24.467c15.777-15.777,24.467-36.755,24.467-59.069S422.469,77.972,406.691,62.194z M395.256,168.898     c-12.722,12.726-29.641,19.733-47.635,19.733s-34.912-7.007-47.635-19.733c-12.726-12.723-19.733-29.641-19.733-47.635     s7.007-34.912,19.733-47.634c12.722-12.726,29.641-19.733,47.635-19.733s34.913,7.007,47.635,19.732     c12.726,12.723,19.733,29.641,19.733,47.635C414.989,139.258,407.982,156.176,395.256,168.898z" fill="#FFFFFF"/>
			<path d="M223.663,376.184c-4.466,0-8.084,3.618-8.084,8.084v1.078c0,4.466,3.618,8.084,8.084,8.084     c4.466,0,8.084-3.618,8.084-8.084v-1.078C231.747,379.802,228.129,376.184,223.663,376.184z" fill="#FFFFFF"/>
			<path d="M212.884,301.809h-21.558c-10.401,0-18.863,8.463-18.863,18.863v21.558c0,10.401,8.463,18.863,18.863,18.863h21.558     c10.401,0,18.863-8.463,18.863-18.863v-21.558C231.747,310.271,223.285,301.809,212.884,301.809z M215.579,342.23     c0,1.486-1.208,2.695-2.695,2.695h-21.558c-1.486,0-2.695-1.208-2.695-2.695v-21.558c0-1.486,1.208-2.695,2.695-2.695h21.558     c1.486,0,2.695,1.208,2.695,2.695V342.23z" fill="#FFFFFF"/>
		</g>
	</g>
</g>
<g>
</g>
<g>
</g>
<g>
</g>
<g>
</g>
<g>
</g>
<g>
</g>
<g>
</g>
<g>
</g>
<g>
</g>
<g>
</g>
<g>
</g>
<g>
</g>
<g>
</g>
<g>
</g>
<g>
</g>
</svg>
